<?xml version="1.0" encoding="UTF-8" standalone="no"?>
<!DOCTYPE svg PUBLIC "-//W3C//DTD SVG 1.1//EN"
 "http://www.w3.org/Graphics/SVG/1.1/DTD/svg11.dtd">
<!-- Generated by graphviz version 2.42.3 (20191010.1750)
 -->
<!-- Title: Courses Pages: 1 -->
<svg width="369pt" height="216pt"
 viewBox="0.00 0.00 369.27 216.00" xmlns="http://www.w3.org/2000/svg" xmlns:xlink="http://www.w3.org/1999/xlink">
<g id="graph0" class="graph" transform="scale(1 1) rotate(0) translate(4 212)">
<title>Courses</title>
<polygon fill="white" stroke="transparent" points="-4,4 -4,-212 365.27,-212 365.27,4 -4,4"/>
<!-- probability -->
<g id="node1" class="node">
<title>probability</title>
<g id="a_node1"><a xlink:href="#vertex.probability" xlink:title="probability">
<ellipse fill="none" stroke="black" cx="120.48" cy="-190" rx="68.47" ry="18"/>
<text text-anchor="middle" x="120.48" y="-185.8" font-family="Courier,monospace" font-size="14.00">probability</text>
</a>
</g>
</g>
<!-- math&#45;for&#45;cs -->
<g id="node3" class="node">
<title>math&#45;for&#45;cs</title>
<g id="a_node3"><a xlink:href="#vertex.math-for-cs" xlink:title="math&#45;for&#45;cs">
<ellipse fill="none" stroke="black" cx="68.48" cy="-104" rx="68.47" ry="18"/>
<text text-anchor="middle" x="68.48" y="-99.8" font-family="Courier,monospace" font-size="14.00">math&#45;for&#45;cs</text>
</a>
</g>
</g>
<!-- probability&#45;&gt;math&#45;for&#45;cs -->
<g id="edge1" class="edge">
<title>probability&#45;&gt;math&#45;for&#45;cs</title>
<g id="a_edge1"><a xlink:href="#edge.1" xlink:title="[1]">
<path fill="none" stroke="black" d="M109.96,-172C102.63,-160.16 92.72,-144.15 84.42,-130.75"/>
<polygon fill="black" stroke="black" points="87.23,-128.63 78.99,-121.97 81.28,-132.32 87.23,-128.63"/>
</a>
</g>
<g id="a_edge1&#45;label"><a xlink:href="#edge.1" xlink:title="[1]">
<text text-anchor="middle" x="106.65" y="-142.8" font-family="Times,serif" font-size="14.00">[1]</text>
</a>
</g>
</g>
<!-- dsa -->
<g id="node4" class="node">
<title>dsa</title>
<g id="a_node4"><a xlink:href="#vertex.dsa" xlink:title="dsa">
<ellipse fill="none" stroke="black" cx="168.48" cy="-18" rx="27" ry="18"/>
<text text-anchor="middle" x="168.48" y="-13.8" font-family="Courier,monospace" font-size="14.00">dsa</text>
</a>
</g>
</g>
<!-- probability&#45;&gt;dsa -->
<g id="edge5" class="edge">
<title>probability&#45;&gt;dsa</title>
<g id="a_edge5"><a xlink:href="#edge.5" xlink:title="[5]">
<path fill="none" stroke="black" d="M127.62,-171.87C133.02,-158.46 140.36,-139.26 145.48,-122 153.03,-96.57 159.39,-66.96 163.5,-46.04"/>
<polygon fill="black" stroke="black" points="166.99,-46.43 165.44,-35.95 160.12,-45.11 166.99,-46.43"/>
</a>
</g>
<g id="a_edge5&#45;label"><a xlink:href="#edge.5" xlink:title="[5]">
<text text-anchor="middle" x="163.65" y="-99.8" font-family="Times,serif" font-size="14.00">[5]</text>
</a>
</g>
</g>
<!-- programming -->
<g id="node2" class="node">
<title>programming</title>
<g id="a_node2"><a xlink:href="#vertex.programming" xlink:title="programming">
<ellipse fill="none" stroke="black" cx="283.48" cy="-104" rx="68.47" ry="18"/>
<text text-anchor="middle" x="283.48" y="-99.8" font-family="Courier,monospace" font-size="14.00">programming</text>
</a>
</g>
</g>
<!-- programming&#45;&gt;dsa -->
<g id="edge2" class="edge">
<title>programming&#45;&gt;dsa</title>
<g id="a_edge2"><a xlink:href="#edge.2" xlink:title="[2]">
<path fill="none" stroke="black" d="M261.31,-86.8C242.12,-72.79 214.36,-52.51 194.2,-37.79"/>
<polygon fill="black" stroke="black" points="196.21,-34.92 186.07,-31.85 192.09,-40.57 196.21,-34.92"/>
</a>
</g>
<g id="a_edge2&#45;label"><a xlink:href="#edge.2" xlink:title="[2]">
<text text-anchor="middle" x="241.65" y="-56.8" font-family="Times,serif" font-size="14.00">[2]</text>
</a>
</g>
</g>
<!-- software&#45;dev -->
<g id="node5" class="node">
<title>software&#45;dev</title>
<g id="a_node5"><a xlink:href="#vertex.software-dev" xlink:title="software&#45;dev">
<ellipse fill="none" stroke="black" cx="287.48" cy="-18" rx="73.58" ry="18"/>
<text text-anchor="middle" x="287.48" y="-13.8" font-family="Courier,monospace" font-size="14.00">software&#45;dev</text>
</a>
</g>
</g>
<!-- programming&#45;&gt;software&#45;dev -->
<g id="edge4" class="edge">
<title>programming&#45;&gt;software&#45;dev</title>
<path fill="none" stroke="black" d="M284.31,-85.6C284.85,-74.26 285.57,-59.23 286.18,-46.32"/>
<polygon fill="black" stroke="black" points="289.69,-46.25 286.67,-36.1 282.7,-45.92 289.69,-46.25"/>
<text text-anchor="middle" x="294.65" y="-56.8" font-family="Times,serif" font-size="14.00">[4]</text>
</g>
<!-- math&#45;for&#45;cs&#45;&gt;dsa -->
<g id="edge3" class="edge">
<title>math&#45;for&#45;cs&#45;&gt;dsa</title>
<g id="a_edge3"><a xlink:href="#edge.3" xlink:title="[3]">
<path fill="none" stroke="black" d="M88.24,-86.4C104.38,-72.84 127.26,-53.63 144.46,-39.18"/>
<polygon fill="black" stroke="black" points="146.99,-41.63 152.39,-32.51 142.49,-36.27 146.99,-41.63"/>
</a>
</g>
<g id="a_edge3&#45;label"><a xlink:href="#edge.3" xlink:title="[3]">
<text text-anchor="middle" x="132.65" y="-56.8" font-family="Times,serif" font-size="14.00">[3]</text>
</a>
</g>
</g>
</g>
</svg>
